<mxfile host="app.diagrams.net" modified="2023-09-13T12:19:14.940Z" agent="Mozilla/5.0 (Windows NT 10.0; Win64; x64) AppleWebKit/537.36 (KHTML, like Gecko) Chrome/115.0.0.0 Safari/537.36 Edg/115.0.1901.203" etag="n8ltR937tC-3GrgPGrwn" version="21.7.2" type="device">
  <diagram name="PÃ¡gina-1" id="M5GFfaLVcnrqiDl_ZwPC">
    <mxGraphModel dx="1659" dy="473" grid="1" gridSize="10" guides="1" tooltips="1" connect="1" arrows="1" fold="1" page="1" pageScale="1" pageWidth="827" pageHeight="1169" math="0" shadow="0">
      <root>
        <mxCell id="0" />
        <mxCell id="1" parent="0" />
        <object label="Producto" id="g55L8w_lkAx7v0pYMvu_-1">
          <mxCell style="rounded=0;whiteSpace=wrap;html=1;fontStyle=2;fillColor=#0050ef;strokeColor=#001DBC;fontColor=#ffffff;" vertex="1" parent="1">
            <mxGeometry x="80" y="80" width="120" height="60" as="geometry" />
          </mxCell>
        </object>
        <mxCell id="g55L8w_lkAx7v0pYMvu_-2" value="Usuarios" style="rounded=0;whiteSpace=wrap;html=1;fillColor=#d80073;strokeColor=#A50040;fontColor=#ffffff;" vertex="1" parent="1">
          <mxGeometry x="420" y="80" width="120" height="60" as="geometry" />
        </mxCell>
        <mxCell id="g55L8w_lkAx7v0pYMvu_-3" value="Categoria" style="rounded=0;whiteSpace=wrap;html=1;fontStyle=2;fillColor=#60a917;strokeColor=#2D7600;fontColor=#ffffff;" vertex="1" parent="1">
          <mxGeometry x="80" y="350" width="120" height="60" as="geometry" />
        </mxCell>
        <mxCell id="g55L8w_lkAx7v0pYMvu_-4" value="Rol" style="rounded=0;whiteSpace=wrap;html=1;fontStyle=2;fillColor=#1ba1e2;strokeColor=#006EAF;fontColor=#ffffff;" vertex="1" parent="1">
          <mxGeometry x="414" y="360" width="120" height="60" as="geometry" />
        </mxCell>
        <mxCell id="g55L8w_lkAx7v0pYMvu_-6" value="direccion" style="ellipse;whiteSpace=wrap;html=1;" vertex="1" parent="1">
          <mxGeometry x="540" y="10" width="120" height="50" as="geometry" />
        </mxCell>
        <mxCell id="g55L8w_lkAx7v0pYMvu_-7" value="nombre" style="ellipse;whiteSpace=wrap;html=1;" vertex="1" parent="1">
          <mxGeometry x="560" y="100" width="120" height="50" as="geometry" />
        </mxCell>
        <mxCell id="g55L8w_lkAx7v0pYMvu_-8" value="telefono" style="ellipse;whiteSpace=wrap;html=1;" vertex="1" parent="1">
          <mxGeometry x="300" width="120" height="50" as="geometry" />
        </mxCell>
        <mxCell id="g55L8w_lkAx7v0pYMvu_-9" value="Id_usuarios (PK)" style="ellipse;whiteSpace=wrap;html=1;" vertex="1" parent="1">
          <mxGeometry x="360" y="160" width="120" height="60" as="geometry" />
        </mxCell>
        <mxCell id="g55L8w_lkAx7v0pYMvu_-10" value="id_rol (PK)" style="ellipse;whiteSpace=wrap;html=1;" vertex="1" parent="1">
          <mxGeometry x="560" y="300" width="120" height="50" as="geometry" />
        </mxCell>
        <mxCell id="g55L8w_lkAx7v0pYMvu_-11" value="nombre del rol" style="ellipse;whiteSpace=wrap;html=1;" vertex="1" parent="1">
          <mxGeometry x="560" y="380" width="120" height="50" as="geometry" />
        </mxCell>
        <mxCell id="g55L8w_lkAx7v0pYMvu_-12" value="id_categoria (PK)" style="ellipse;whiteSpace=wrap;html=1;" vertex="1" parent="1">
          <mxGeometry y="290" width="120" height="50" as="geometry" />
        </mxCell>
        <mxCell id="g55L8w_lkAx7v0pYMvu_-13" value="nombre" style="ellipse;whiteSpace=wrap;html=1;" vertex="1" parent="1">
          <mxGeometry x="150" y="280" width="120" height="50" as="geometry" />
        </mxCell>
        <mxCell id="g55L8w_lkAx7v0pYMvu_-14" value="descripcion" style="ellipse;whiteSpace=wrap;html=1;" vertex="1" parent="1">
          <mxGeometry x="80" y="420" width="120" height="50" as="geometry" />
        </mxCell>
        <mxCell id="g55L8w_lkAx7v0pYMvu_-15" value="" style="endArrow=none;html=1;rounded=0;exitX=1;exitY=1;exitDx=0;exitDy=0;" edge="1" parent="1" source="g55L8w_lkAx7v0pYMvu_-8" target="g55L8w_lkAx7v0pYMvu_-2">
          <mxGeometry width="50" height="50" relative="1" as="geometry">
            <mxPoint x="390" y="270" as="sourcePoint" />
            <mxPoint x="440" y="220" as="targetPoint" />
            <Array as="points" />
          </mxGeometry>
        </mxCell>
        <mxCell id="g55L8w_lkAx7v0pYMvu_-17" value="" style="endArrow=none;html=1;rounded=0;entryX=0.5;entryY=0;entryDx=0;entryDy=0;" edge="1" parent="1" target="g55L8w_lkAx7v0pYMvu_-9">
          <mxGeometry width="50" height="50" relative="1" as="geometry">
            <mxPoint x="420" y="160" as="sourcePoint" />
            <mxPoint x="440" y="220" as="targetPoint" />
            <Array as="points">
              <mxPoint x="420" y="140" />
            </Array>
          </mxGeometry>
        </mxCell>
        <mxCell id="g55L8w_lkAx7v0pYMvu_-18" value="" style="endArrow=none;html=1;rounded=0;entryX=0;entryY=0.5;entryDx=0;entryDy=0;exitX=1;exitY=0.75;exitDx=0;exitDy=0;" edge="1" parent="1" source="g55L8w_lkAx7v0pYMvu_-2" target="g55L8w_lkAx7v0pYMvu_-7">
          <mxGeometry width="50" height="50" relative="1" as="geometry">
            <mxPoint x="390" y="270" as="sourcePoint" />
            <mxPoint x="440" y="220" as="targetPoint" />
            <Array as="points" />
          </mxGeometry>
        </mxCell>
        <mxCell id="g55L8w_lkAx7v0pYMvu_-19" value="" style="endArrow=none;html=1;rounded=0;exitX=1;exitY=0;exitDx=0;exitDy=0;" edge="1" parent="1" source="g55L8w_lkAx7v0pYMvu_-2">
          <mxGeometry width="50" height="50" relative="1" as="geometry">
            <mxPoint x="390" y="270" as="sourcePoint" />
            <mxPoint x="540" y="50" as="targetPoint" />
            <Array as="points">
              <mxPoint x="540" y="50" />
            </Array>
          </mxGeometry>
        </mxCell>
        <mxCell id="g55L8w_lkAx7v0pYMvu_-23" value="" style="endArrow=none;html=1;rounded=0;entryX=0.333;entryY=0.971;entryDx=0;entryDy=0;entryPerimeter=0;" edge="1" parent="1" target="g55L8w_lkAx7v0pYMvu_-13">
          <mxGeometry width="50" height="50" relative="1" as="geometry">
            <mxPoint x="180" y="340" as="sourcePoint" />
            <mxPoint x="440" y="220" as="targetPoint" />
            <Array as="points">
              <mxPoint x="180" y="350" />
              <mxPoint x="180" y="340" />
            </Array>
          </mxGeometry>
        </mxCell>
        <mxCell id="g55L8w_lkAx7v0pYMvu_-24" value="" style="endArrow=none;html=1;rounded=0;entryX=0;entryY=0;entryDx=0;entryDy=0;" edge="1" parent="1" target="g55L8w_lkAx7v0pYMvu_-3">
          <mxGeometry width="50" height="50" relative="1" as="geometry">
            <mxPoint x="80" y="340" as="sourcePoint" />
            <mxPoint x="440" y="220" as="targetPoint" />
            <Array as="points">
              <mxPoint x="80" y="340" />
            </Array>
          </mxGeometry>
        </mxCell>
        <mxCell id="g55L8w_lkAx7v0pYMvu_-25" value="" style="endArrow=none;html=1;rounded=0;exitX=0.5;exitY=0;exitDx=0;exitDy=0;entryX=0.5;entryY=1;entryDx=0;entryDy=0;" edge="1" parent="1" source="g55L8w_lkAx7v0pYMvu_-14" target="g55L8w_lkAx7v0pYMvu_-3">
          <mxGeometry width="50" height="50" relative="1" as="geometry">
            <mxPoint x="390" y="270" as="sourcePoint" />
            <mxPoint x="440" y="220" as="targetPoint" />
            <Array as="points">
              <mxPoint x="140" y="400" />
            </Array>
          </mxGeometry>
        </mxCell>
        <mxCell id="g55L8w_lkAx7v0pYMvu_-26" value="Id_producto (PK)" style="ellipse;whiteSpace=wrap;html=1;" vertex="1" parent="1">
          <mxGeometry x="-10" width="120" height="50" as="geometry" />
        </mxCell>
        <mxCell id="g55L8w_lkAx7v0pYMvu_-27" value="nombre" style="ellipse;whiteSpace=wrap;html=1;" vertex="1" parent="1">
          <mxGeometry x="140" width="120" height="50" as="geometry" />
        </mxCell>
        <mxCell id="g55L8w_lkAx7v0pYMvu_-28" value="stock" style="ellipse;whiteSpace=wrap;html=1;" vertex="1" parent="1">
          <mxGeometry y="160" width="120" height="40" as="geometry" />
        </mxCell>
        <mxCell id="g55L8w_lkAx7v0pYMvu_-29" value="proveedor" style="ellipse;whiteSpace=wrap;html=1;" vertex="1" parent="1">
          <mxGeometry x="150" y="160" width="120" height="40" as="geometry" />
        </mxCell>
        <mxCell id="g55L8w_lkAx7v0pYMvu_-30" value="descripcion" style="ellipse;whiteSpace=wrap;html=1;" vertex="1" parent="1">
          <mxGeometry x="220" y="80" width="120" height="50" as="geometry" />
        </mxCell>
        <mxCell id="g55L8w_lkAx7v0pYMvu_-31" value="precio" style="ellipse;whiteSpace=wrap;html=1;" vertex="1" parent="1">
          <mxGeometry x="-10" y="70" width="80" height="60" as="geometry" />
        </mxCell>
        <mxCell id="g55L8w_lkAx7v0pYMvu_-32" value="" style="endArrow=none;html=1;rounded=0;entryX=0.683;entryY=1.02;entryDx=0;entryDy=0;entryPerimeter=0;exitX=0;exitY=0;exitDx=0;exitDy=0;" edge="1" parent="1" source="g55L8w_lkAx7v0pYMvu_-1" target="g55L8w_lkAx7v0pYMvu_-26">
          <mxGeometry width="50" height="50" relative="1" as="geometry">
            <mxPoint x="390" y="270" as="sourcePoint" />
            <mxPoint x="440" y="220" as="targetPoint" />
            <Array as="points">
              <mxPoint x="80" y="80" />
            </Array>
          </mxGeometry>
        </mxCell>
        <mxCell id="g55L8w_lkAx7v0pYMvu_-33" value="" style="endArrow=none;html=1;rounded=0;exitX=0.95;exitY=0.667;exitDx=0;exitDy=0;exitPerimeter=0;entryX=0;entryY=0.5;entryDx=0;entryDy=0;" edge="1" parent="1" source="g55L8w_lkAx7v0pYMvu_-31" target="g55L8w_lkAx7v0pYMvu_-1">
          <mxGeometry width="50" height="50" relative="1" as="geometry">
            <mxPoint x="390" y="270" as="sourcePoint" />
            <mxPoint x="440" y="220" as="targetPoint" />
            <Array as="points">
              <mxPoint x="80" y="110" />
            </Array>
          </mxGeometry>
        </mxCell>
        <mxCell id="g55L8w_lkAx7v0pYMvu_-34" value="" style="endArrow=none;html=1;rounded=0;" edge="1" parent="1" source="g55L8w_lkAx7v0pYMvu_-28">
          <mxGeometry width="50" height="50" relative="1" as="geometry">
            <mxPoint x="390" y="270" as="sourcePoint" />
            <mxPoint x="80" y="140" as="targetPoint" />
            <Array as="points">
              <mxPoint x="80" y="140" />
            </Array>
          </mxGeometry>
        </mxCell>
        <mxCell id="g55L8w_lkAx7v0pYMvu_-35" value="" style="endArrow=none;html=1;rounded=0;exitX=0.325;exitY=0.067;exitDx=0;exitDy=0;exitPerimeter=0;" edge="1" parent="1" source="g55L8w_lkAx7v0pYMvu_-29">
          <mxGeometry width="50" height="50" relative="1" as="geometry">
            <mxPoint x="390" y="270" as="sourcePoint" />
            <mxPoint x="189" y="164" as="targetPoint" />
            <Array as="points">
              <mxPoint x="180" y="140" />
            </Array>
          </mxGeometry>
        </mxCell>
        <mxCell id="g55L8w_lkAx7v0pYMvu_-36" value="" style="endArrow=none;html=1;rounded=0;exitX=1;exitY=0.5;exitDx=0;exitDy=0;entryX=0;entryY=0.5;entryDx=0;entryDy=0;" edge="1" parent="1" source="g55L8w_lkAx7v0pYMvu_-1" target="g55L8w_lkAx7v0pYMvu_-30">
          <mxGeometry width="50" height="50" relative="1" as="geometry">
            <mxPoint x="390" y="270" as="sourcePoint" />
            <mxPoint x="440" y="220" as="targetPoint" />
            <Array as="points">
              <mxPoint x="200" y="110" />
            </Array>
          </mxGeometry>
        </mxCell>
        <mxCell id="g55L8w_lkAx7v0pYMvu_-37" value="" style="endArrow=none;html=1;rounded=0;entryX=0;entryY=0.667;entryDx=0;entryDy=0;entryPerimeter=0;exitX=0.933;exitY=0.033;exitDx=0;exitDy=0;exitPerimeter=0;" edge="1" parent="1" source="g55L8w_lkAx7v0pYMvu_-4" target="g55L8w_lkAx7v0pYMvu_-10">
          <mxGeometry width="50" height="50" relative="1" as="geometry">
            <mxPoint x="390" y="270" as="sourcePoint" />
            <mxPoint x="440" y="220" as="targetPoint" />
            <Array as="points">
              <mxPoint x="530" y="360" />
            </Array>
          </mxGeometry>
        </mxCell>
        <mxCell id="g55L8w_lkAx7v0pYMvu_-38" value="" style="endArrow=none;html=1;rounded=0;entryX=0;entryY=0.5;entryDx=0;entryDy=0;exitX=1.025;exitY=0.65;exitDx=0;exitDy=0;exitPerimeter=0;" edge="1" parent="1" source="g55L8w_lkAx7v0pYMvu_-4" target="g55L8w_lkAx7v0pYMvu_-11">
          <mxGeometry width="50" height="50" relative="1" as="geometry">
            <mxPoint x="390" y="270" as="sourcePoint" />
            <mxPoint x="440" y="220" as="targetPoint" />
            <Array as="points">
              <mxPoint x="540" y="400" />
            </Array>
          </mxGeometry>
        </mxCell>
        <mxCell id="g55L8w_lkAx7v0pYMvu_-45" value="&lt;span style=&quot;color: rgb(55, 65, 81); font-family: SÃ¶hne, ui-sans-serif, system-ui, -apple-system, &amp;quot;Segoe UI&amp;quot;, Roboto, Ubuntu, Cantarell, &amp;quot;Noto Sans&amp;quot;, sans-serif, &amp;quot;Helvetica Neue&amp;quot;, Arial, &amp;quot;Apple Color Emoji&amp;quot;, &amp;quot;Segoe UI Emoji&amp;quot;, &amp;quot;Segoe UI Symbol&amp;quot;, &amp;quot;Noto Color Emoji&amp;quot;; font-size: 16px; font-style: normal; font-variant-ligatures: normal; font-variant-caps: normal; font-weight: 400; letter-spacing: normal; orphans: 2; text-align: left; text-indent: 0px; text-transform: none; widows: 2; word-spacing: 0px; -webkit-text-stroke-width: 0px; background-color: rgb(247, 247, 248); text-decoration-thickness: initial; text-decoration-style: initial; text-decoration-color: initial; float: none; display: inline !important;&quot;&gt;(1:N)&lt;/span&gt;" style="text;whiteSpace=wrap;html=1;" vertex="1" parent="1">
          <mxGeometry x="120" y="140" width="70" height="40" as="geometry" />
        </mxCell>
        <mxCell id="g55L8w_lkAx7v0pYMvu_-46" value="&lt;span style=&quot;color: rgb(55, 65, 81); font-family: SÃ¶hne, ui-sans-serif, system-ui, -apple-system, &amp;quot;Segoe UI&amp;quot;, Roboto, Ubuntu, Cantarell, &amp;quot;Noto Sans&amp;quot;, sans-serif, &amp;quot;Helvetica Neue&amp;quot;, Arial, &amp;quot;Apple Color Emoji&amp;quot;, &amp;quot;Segoe UI Emoji&amp;quot;, &amp;quot;Segoe UI Symbol&amp;quot;, &amp;quot;Noto Color Emoji&amp;quot;; font-size: 16px; font-style: normal; font-variant-ligatures: normal; font-variant-caps: normal; font-weight: 400; letter-spacing: normal; orphans: 2; text-align: left; text-indent: 0px; text-transform: none; widows: 2; word-spacing: 0px; -webkit-text-stroke-width: 0px; background-color: rgb(247, 247, 248); text-decoration-thickness: initial; text-decoration-style: initial; text-decoration-color: initial; float: none; display: inline !important;&quot;&gt;(1:N)&lt;/span&gt;" style="text;whiteSpace=wrap;html=1;" vertex="1" parent="1">
          <mxGeometry x="480" y="140" width="70" height="40" as="geometry" />
        </mxCell>
        <mxCell id="g55L8w_lkAx7v0pYMvu_-47" value="&lt;span style=&quot;color: rgb(55, 65, 81); font-family: SÃ¶hne, ui-sans-serif, system-ui, -apple-system, &amp;quot;Segoe UI&amp;quot;, Roboto, Ubuntu, Cantarell, &amp;quot;Noto Sans&amp;quot;, sans-serif, &amp;quot;Helvetica Neue&amp;quot;, Arial, &amp;quot;Apple Color Emoji&amp;quot;, &amp;quot;Segoe UI Emoji&amp;quot;, &amp;quot;Segoe UI Symbol&amp;quot;, &amp;quot;Noto Color Emoji&amp;quot;; font-size: 16px; font-style: normal; font-variant-ligatures: normal; font-variant-caps: normal; font-weight: 400; letter-spacing: normal; orphans: 2; text-align: left; text-indent: 0px; text-transform: none; widows: 2; word-spacing: 0px; -webkit-text-stroke-width: 0px; background-color: rgb(247, 247, 248); text-decoration-thickness: initial; text-decoration-style: initial; text-decoration-color: initial; float: none; display: inline !important;&quot;&gt;(N:1)&lt;/span&gt;" style="text;whiteSpace=wrap;html=1;" vertex="1" parent="1">
          <mxGeometry x="470" y="330" width="70" height="40" as="geometry" />
        </mxCell>
        <mxCell id="g55L8w_lkAx7v0pYMvu_-48" value="pertenecer" style="shape=rhombus;perimeter=rhombusPerimeter;whiteSpace=wrap;html=1;align=center;" vertex="1" parent="1">
          <mxGeometry x="80" y="210" width="100" height="60" as="geometry" />
        </mxCell>
        <mxCell id="g55L8w_lkAx7v0pYMvu_-49" value="" style="endArrow=none;html=1;rounded=0;entryX=0.25;entryY=0;entryDx=0;entryDy=0;exitX=0.5;exitY=0;exitDx=0;exitDy=0;" edge="1" parent="1" source="g55L8w_lkAx7v0pYMvu_-48" target="g55L8w_lkAx7v0pYMvu_-45">
          <mxGeometry relative="1" as="geometry">
            <mxPoint x="330" y="250" as="sourcePoint" />
            <mxPoint x="490" y="250" as="targetPoint" />
          </mxGeometry>
        </mxCell>
        <mxCell id="g55L8w_lkAx7v0pYMvu_-50" value="1" style="resizable=0;html=1;whiteSpace=wrap;align=right;verticalAlign=bottom;" connectable="0" vertex="1" parent="g55L8w_lkAx7v0pYMvu_-49">
          <mxGeometry x="1" relative="1" as="geometry" />
        </mxCell>
        <mxCell id="g55L8w_lkAx7v0pYMvu_-51" value="" style="endArrow=none;html=1;rounded=0;entryX=0.5;entryY=0;entryDx=0;entryDy=0;exitX=0.5;exitY=1;exitDx=0;exitDy=0;" edge="1" parent="1" source="g55L8w_lkAx7v0pYMvu_-48" target="g55L8w_lkAx7v0pYMvu_-3">
          <mxGeometry relative="1" as="geometry">
            <mxPoint x="330" y="250" as="sourcePoint" />
            <mxPoint x="490" y="250" as="targetPoint" />
          </mxGeometry>
        </mxCell>
        <mxCell id="g55L8w_lkAx7v0pYMvu_-52" value="N" style="resizable=0;html=1;whiteSpace=wrap;align=right;verticalAlign=bottom;" connectable="0" vertex="1" parent="g55L8w_lkAx7v0pYMvu_-51">
          <mxGeometry x="1" relative="1" as="geometry" />
        </mxCell>
        <mxCell id="g55L8w_lkAx7v0pYMvu_-53" value="comprar/elegir" style="shape=rhombus;perimeter=rhombusPerimeter;whiteSpace=wrap;html=1;align=center;" vertex="1" parent="1">
          <mxGeometry x="320" y="240" width="110" height="60" as="geometry" />
        </mxCell>
        <mxCell id="g55L8w_lkAx7v0pYMvu_-56" value="" style="endArrow=none;html=1;rounded=0;entryX=1;entryY=1;entryDx=0;entryDy=0;exitX=0;exitY=0.5;exitDx=0;exitDy=0;" edge="1" parent="1" source="g55L8w_lkAx7v0pYMvu_-53" target="g55L8w_lkAx7v0pYMvu_-1">
          <mxGeometry relative="1" as="geometry">
            <mxPoint x="330" y="250" as="sourcePoint" />
            <mxPoint x="490" y="250" as="targetPoint" />
          </mxGeometry>
        </mxCell>
        <mxCell id="g55L8w_lkAx7v0pYMvu_-57" value="N" style="resizable=0;html=1;whiteSpace=wrap;align=right;verticalAlign=bottom;" connectable="0" vertex="1" parent="g55L8w_lkAx7v0pYMvu_-56">
          <mxGeometry x="1" relative="1" as="geometry" />
        </mxCell>
        <mxCell id="g55L8w_lkAx7v0pYMvu_-60" value="" style="endArrow=none;html=1;rounded=0;entryX=0.871;entryY=0.05;entryDx=0;entryDy=0;entryPerimeter=0;exitX=1;exitY=0.5;exitDx=0;exitDy=0;" edge="1" parent="1" source="g55L8w_lkAx7v0pYMvu_-53" target="g55L8w_lkAx7v0pYMvu_-46">
          <mxGeometry relative="1" as="geometry">
            <mxPoint x="330" y="250" as="sourcePoint" />
            <mxPoint x="490" y="250" as="targetPoint" />
          </mxGeometry>
        </mxCell>
        <mxCell id="g55L8w_lkAx7v0pYMvu_-61" value="1" style="resizable=0;html=1;whiteSpace=wrap;align=right;verticalAlign=bottom;" connectable="0" vertex="1" parent="g55L8w_lkAx7v0pYMvu_-60">
          <mxGeometry x="1" relative="1" as="geometry" />
        </mxCell>
        <mxCell id="g55L8w_lkAx7v0pYMvu_-62" value="tener" style="shape=rhombus;perimeter=rhombusPerimeter;whiteSpace=wrap;html=1;align=center;" vertex="1" parent="1">
          <mxGeometry x="510" y="200" width="120" height="60" as="geometry" />
        </mxCell>
        <mxCell id="g55L8w_lkAx7v0pYMvu_-63" value="" style="endArrow=none;html=1;rounded=0;exitX=0.5;exitY=0;exitDx=0;exitDy=0;" edge="1" parent="1" source="g55L8w_lkAx7v0pYMvu_-62">
          <mxGeometry relative="1" as="geometry">
            <mxPoint x="330" y="250" as="sourcePoint" />
            <mxPoint x="540" y="140" as="targetPoint" />
          </mxGeometry>
        </mxCell>
        <mxCell id="g55L8w_lkAx7v0pYMvu_-64" value="1" style="resizable=0;html=1;whiteSpace=wrap;align=right;verticalAlign=bottom;" connectable="0" vertex="1" parent="g55L8w_lkAx7v0pYMvu_-63">
          <mxGeometry x="1" relative="1" as="geometry" />
        </mxCell>
        <mxCell id="g55L8w_lkAx7v0pYMvu_-65" value="" style="endArrow=none;html=1;rounded=0;exitX=0.5;exitY=1;exitDx=0;exitDy=0;entryX=0.914;entryY=1.075;entryDx=0;entryDy=0;entryPerimeter=0;" edge="1" parent="1" source="g55L8w_lkAx7v0pYMvu_-62" target="g55L8w_lkAx7v0pYMvu_-47">
          <mxGeometry relative="1" as="geometry">
            <mxPoint x="330" y="250" as="sourcePoint" />
            <mxPoint x="490" y="250" as="targetPoint" />
          </mxGeometry>
        </mxCell>
        <mxCell id="g55L8w_lkAx7v0pYMvu_-66" value="N" style="resizable=0;html=1;whiteSpace=wrap;align=right;verticalAlign=bottom;" connectable="0" vertex="1" parent="g55L8w_lkAx7v0pYMvu_-65">
          <mxGeometry x="1" relative="1" as="geometry" />
        </mxCell>
        <mxCell id="g55L8w_lkAx7v0pYMvu_-67" value="&lt;p class=&quot;MsoNormal&quot;&gt;&lt;span style=&quot;mso-bidi-font-family:Calibri;mso-bidi-theme-font:&#xa;minor-latin;color:#374151;background:#F7F7F8&quot;&gt;Un producto puede pertenecer a&#xa;una categorÃ­a, pero una categorÃ­a puede tener muchos productos. (1:N)&lt;/span&gt;&lt;/p&gt;&#xa;&#xa;&lt;p class=&quot;MsoNormal&quot;&gt;&lt;span style=&quot;mso-bidi-font-family:Calibri;mso-bidi-theme-font:&#xa;minor-latin;color:#374151;background:#F7F7F8&quot;&gt;Un producto puede ser comprado, o&#xa;seleccionado por un usuario, pero un usuario puede comprar, o seleccionar&#xa;muchos productos. (1:N)&lt;/span&gt;&lt;/p&gt;&#xa;&#xa;&lt;p class=&quot;MsoNormal&quot;&gt;&lt;span style=&quot;mso-bidi-font-family:Calibri;mso-bidi-theme-font:&#xa;minor-latin;color:#374151;background:#F7F7F8&quot;&gt;Un usuario puede tener un rol,&#xa;pero un rol puede estar asociado a muchos usuarios. (N:1)&lt;/span&gt;&lt;/p&gt;&#xa;&#xa;&lt;p class=&quot;MsoNormal&quot;&gt;&lt;span style=&quot;mso-bidi-font-family:Calibri;mso-bidi-theme-font:&#xa;minor-latin;color:#374151;background:#F7F7F8&quot;&gt;Un usuario puede seleccionar, o&#xa;comprar muchos productos, pero un producto es comprado o seleccionado por un&#xa;usuario. (N:1)&lt;/span&gt;&lt;/p&gt;&#xa;&#xa;&lt;p class=&quot;MsoNormal&quot;&gt;&lt;span style=&quot;mso-bidi-font-family:Calibri;mso-bidi-theme-font:&#xa;minor-latin;color:#374151;background:#F7F7F8&quot;&gt;Un rol puede estar asociado a&#xa;muchos usuarios, pero un usuario tiene un solo rol. (N:1)&lt;/span&gt;&lt;/p&gt;&#xa;&#xa;&lt;p class=&quot;MsoNormal&quot;&gt;&lt;span style=&quot;mso-bidi-font-family:Calibri;mso-bidi-theme-font:&#xa;minor-latin;color:#374151;background:#F7F7F8&quot;&gt;Una categorÃ­a puede tener muchos&#xa;productos, pero un producto pertenece a una sola categorÃ­a. (N:1)&lt;/span&gt;&lt;span style=&quot;mso-bidi-font-family:Calibri;mso-bidi-theme-font:minor-latin&quot;&gt;&lt;/span&gt;&lt;/p&gt;" style="text;whiteSpace=wrap;html=1;" vertex="1" parent="1">
          <mxGeometry x="10" y="580" width="470" height="510" as="geometry" />
        </mxCell>
        <mxCell id="g55L8w_lkAx7v0pYMvu_-68" value="cliente" style="ellipse;whiteSpace=wrap;html=1;align=center;" vertex="1" parent="1">
          <mxGeometry x="455" y="440" width="100" height="40" as="geometry" />
        </mxCell>
        <mxCell id="g55L8w_lkAx7v0pYMvu_-69" value="" style="endArrow=none;html=1;rounded=0;entryX=0.417;entryY=1;entryDx=0;entryDy=0;entryPerimeter=0;exitX=0.75;exitY=0;exitDx=0;exitDy=0;" edge="1" parent="1" source="g55L8w_lkAx7v0pYMvu_-1" target="g55L8w_lkAx7v0pYMvu_-27">
          <mxGeometry width="50" height="50" relative="1" as="geometry">
            <mxPoint x="390" y="270" as="sourcePoint" />
            <mxPoint x="440" y="220" as="targetPoint" />
            <Array as="points">
              <mxPoint x="170" y="60" />
            </Array>
          </mxGeometry>
        </mxCell>
        <mxCell id="g55L8w_lkAx7v0pYMvu_-72" value="" style="endArrow=none;html=1;rounded=0;entryX=0.75;entryY=1;entryDx=0;entryDy=0;exitX=0.33;exitY=-0.05;exitDx=0;exitDy=0;exitPerimeter=0;" edge="1" parent="1" source="g55L8w_lkAx7v0pYMvu_-68" target="g55L8w_lkAx7v0pYMvu_-4">
          <mxGeometry width="50" height="50" relative="1" as="geometry">
            <mxPoint x="390" y="270" as="sourcePoint" />
            <mxPoint x="440" y="220" as="targetPoint" />
            <Array as="points">
              <mxPoint x="490" y="440" />
            </Array>
          </mxGeometry>
        </mxCell>
      </root>
    </mxGraphModel>
  </diagram>
</mxfile>
